<svg width="161" height="146" viewBox="0 0 161 146" fill="none" xmlns="http://www.w3.org/2000/svg">
<path d="M0 5C0 2.23857 2.23858 0 5 0H156C158.761 0 161 2.23858 161 5V141C161 143.761 158.761 146 156 146H5C2.23858 146 0 143.761 0 141V5Z" fill="#FBFAFC"/>
<path d="M106.5 96.8325C109.75 96.8325 112.5 94.2075 112.5 90.8325V54.8325C112.5 51.5825 109.75 48.8325 106.5 48.8325H54.5002C51.1252 48.8325 48.5002 51.5825 48.5002 54.8325V90.8325C48.5002 94.2075 51.1252 96.8325 54.5002 96.8325H106.5ZM62.5002 55.8325C66.2502 55.8325 69.5002 59.0825 69.5002 62.8325C69.5002 66.7075 66.2502 69.8325 62.5002 69.8325C58.6252 69.8325 55.5002 66.7075 55.5002 62.8325C55.5002 59.0825 58.6252 55.8325 62.5002 55.8325ZM56.5002 88.8325V82.8325L65.3752 73.9575C66.0002 73.3325 66.8752 73.3325 67.5002 73.9575L74.5002 80.8325L91.3752 63.9575C92.0002 63.3325 92.8752 63.3325 93.5002 63.9575L104.5 74.8325V88.8325H56.5002Z" fill="#2F1160"/>
</svg>
